<?xml version="1.0" encoding="UTF-8" standalone="no"?>
<svg
   xmlns:dc="http://purl.org/dc/elements/1.1/"
   xmlns:cc="http://creativecommons.org/ns#"
   xmlns:rdf="http://www.w3.org/1999/02/22-rdf-syntax-ns#"
   xmlns:svg="http://www.w3.org/2000/svg"
   xmlns="http://www.w3.org/2000/svg"
   xmlns:xlink="http://www.w3.org/1999/xlink"
   id="svg2"
   height="24"
   width="24"
   version="1.0">
  <metadata
     id="metadata109">
    <rdf:RDF>
      <cc:Work
         rdf:about="">
        <dc:format>image/svg+xml</dc:format>
        <dc:type
           rdf:resource="http://purl.org/dc/dcmitype/StillImage" />
      </cc:Work>
    </rdf:RDF>
  </metadata>
  <defs
     id="defs4">
    <linearGradient
       id="linearGradient5060">
      <stop
         offset="0"
         style="stop-color:black;stop-opacity:1"
         id="stop5062" />
      <stop
         offset="1"
         style="stop-color:black;stop-opacity:0"
         id="stop5064" />
    </linearGradient>
    <linearGradient
       id="linearGradient5048">
      <stop
         offset="0"
         style="stop-color:black;stop-opacity:0"
         id="stop5050" />
      <stop
         offset="0.5"
         style="stop-color:black;stop-opacity:1"
         id="stop5056" />
      <stop
         offset="1"
         style="stop-color:black;stop-opacity:0"
         id="stop5052" />
    </linearGradient>
    <linearGradient
       id="linearGradient4222">
      <stop
         offset="0"
         style="stop-color:white;stop-opacity:1"
         id="stop4224" />
      <stop
         offset="1"
         style="stop-color:white;stop-opacity:0"
         id="stop4226" />
    </linearGradient>
    <linearGradient
       id="linearGradient4168">
      <stop
         offset="0"
         style="stop-color:#f8cd70;stop-opacity:1"
         id="stop4170" />
      <stop
         offset="1"
         style="stop-color:#cc9110;stop-opacity:1"
         id="stop4172" />
    </linearGradient>
    <linearGradient
       id="linearGradient5105-262-943-861">
      <stop
         offset="0"
         style="stop-color:#0d0d0d;stop-opacity:1"
         id="stop2487" />
      <stop
         offset="1"
         style="stop-color:#0d0d0d;stop-opacity:0"
         id="stop2489" />
    </linearGradient>
    <radialGradient
       gradientTransform="matrix(-0.02218262,0,0,0.01085997,16.259269,17.380799)"
       gradientUnits="userSpaceOnUse"
       xlink:href="#linearGradient5060"
       id="radialGradient2928"
       fy="486.64789"
       fx="605.71429"
       r="117.14286"
       cy="486.64789"
       cx="605.71429" />
    <radialGradient
       gradientTransform="matrix(0.02218262,0,0,0.01085997,7.7407365,17.380799)"
       gradientUnits="userSpaceOnUse"
       xlink:href="#linearGradient5060"
       id="radialGradient2931"
       fy="486.64789"
       fx="605.71429"
       r="117.14286"
       cy="486.64789"
       cx="605.71429" />
    <linearGradient
       gradientTransform="matrix(0.03776775,0,0,0.01085997,-1.650341,17.380799)"
       gradientUnits="userSpaceOnUse"
       xlink:href="#linearGradient5048"
       id="linearGradient2934"
       y2="609.50507"
       x2="302.85715"
       y1="366.64789"
       x1="302.85715" />
    <radialGradient
       gradientTransform="matrix(2.4956521,0,0,2.4956521,-223.97574,-53.226089)"
       gradientUnits="userSpaceOnUse"
       xlink:href="#radialGradient4241"
       id="radialGradient3269"
       fy="98"
       fx="113.667"
       r="2.5631001"
       cy="97.587898"
       cx="113.0654" />
    <radialGradient
       gradientTransform="matrix(2.4956521,0,0,2.4956521,-223.97574,-53.226089)"
       gradientUnits="userSpaceOnUse"
       xlink:href="#radialGradient4241"
       id="radialGradient3267"
       fy="98"
       fx="113.667"
       r="2.5631001"
       cy="97.587898"
       cx="113.0654" />
    <radialGradient
       gradientTransform="matrix(2.4956521,0,0,2.4956521,-223.97574,-53.226089)"
       gradientUnits="userSpaceOnUse"
       xlink:href="#radialGradient4241"
       id="radialGradient3265"
       fy="98"
       fx="113.667"
       r="2.5631001"
       cy="97.587898"
       cx="113.0654" />
    <radialGradient
       gradientTransform="matrix(2.4956521,0,0,2.4956521,-223.97574,-53.226089)"
       gradientUnits="userSpaceOnUse"
       xlink:href="#radialGradient4241"
       id="radialGradient3263"
       fy="98"
       fx="113.667"
       r="2.5631001"
       cy="97.587898"
       cx="113.0654" />
    <linearGradient
       id="linearGradient6310-8">
      <stop
         offset="0"
         style="stop-color:white;stop-opacity:1"
         id="stop6312-6" />
      <stop
         offset="1"
         style="stop-color:white;stop-opacity:0"
         id="stop6314-6" />
    </linearGradient>
    <linearGradient
       id="linearGradient3484-2">
      <stop
         offset="0"
         style="stop-color:#969696;stop-opacity:1"
         id="stop3486-2" />
      <stop
         offset="1"
         style="stop-color:#b4b4b4;stop-opacity:1"
         id="stop3488-0" />
    </linearGradient>
    <linearGradient
       id="linearGradient7056-0">
      <stop
         offset="0"
         style="stop-color:#e6e6e6;stop-opacity:1"
         id="stop7064-4" />
      <stop
         offset="1"
         style="stop-color:#c8c8c8;stop-opacity:1"
         id="stop7060-2" />
    </linearGradient>
    <linearGradient
       id="linearGradient2215-9">
      <stop
         offset="0"
         style="stop-color:#7a7a7a;stop-opacity:1"
         id="stop2223-6" />
      <stop
         offset="1"
         style="stop-color:#474747;stop-opacity:1"
         id="stop2219-1" />
    </linearGradient>
    <linearGradient
       id="linearGradient4035">
      <stop
         offset="0"
         style="stop-color:#f5f5f5;stop-opacity:1"
         id="stop4037" />
      <stop
         offset="0.47025558"
         style="stop-color:#e7e7e7;stop-opacity:1"
         id="stop4039" />
      <stop
         offset="0.69348532"
         style="stop-color:#8c8c8c;stop-opacity:1"
         id="stop4041" />
      <stop
         offset="0.83542866"
         style="stop-color:#ddd;stop-opacity:1"
         id="stop4043" />
      <stop
         offset="1"
         style="stop-color:#a8a8a8;stop-opacity:1"
         id="stop4045" />
    </linearGradient>
    <radialGradient
       gradientUnits="userSpaceOnUse"
       id="radialGradient4241"
       fy="98"
       fx="113.667"
       r="2.5631001"
       cy="97.587898"
       cx="113.0654">
      <stop
         offset="0"
         style="stop-color:#eee;stop-opacity:1"
         id="stop4243" />
      <stop
         offset="0.16"
         style="stop-color:#cecece;stop-opacity:1"
         id="stop4245" />
      <stop
         offset="0.4675"
         style="stop-color:#888;stop-opacity:1"
         id="stop4247" />
      <stop
         offset="1"
         style="stop-color:#555;stop-opacity:1"
         id="stop4249" />
    </radialGradient>
    <linearGradient
       id="linearGradient6309">
      <stop
         offset="0"
         style="stop-color:black;stop-opacity:1"
         id="stop6311" />
      <stop
         offset="1"
         style="stop-color:#bbb;stop-opacity:0"
         id="stop6313" />
    </linearGradient>
    <linearGradient
       id="linearGradient4236-0">
      <stop
         offset="0"
         style="stop-color:#eee;stop-opacity:1"
         id="stop4238-4" />
      <stop
         offset="1"
         style="stop-color:#eee;stop-opacity:0"
         id="stop4240-3" />
    </linearGradient>
    <linearGradient
       id="linearGradient7609-6">
      <stop
         offset="0"
         style="stop-color:white;stop-opacity:1"
         id="stop7611-3" />
      <stop
         offset="0.47025558"
         style="stop-color:#e7e7e7;stop-opacity:1"
         id="stop7677-2" />
      <stop
         offset="0.67183787"
         style="stop-color:#8c8c8c;stop-opacity:1"
         id="stop7613-4" />
      <stop
         offset="0.83542866"
         style="stop-color:#ddd;stop-opacity:1"
         id="stop7617-3" />
      <stop
         offset="1"
         style="stop-color:#a8a8a8;stop-opacity:1"
         id="stop7615-6" />
    </linearGradient>
    <linearGradient
       id="linearGradient4071">
      <stop
         offset="0"
         style="stop-color:#f5f5f5;stop-opacity:1"
         id="stop4073" />
      <stop
         offset="0.27077749"
         style="stop-color:#e7e7e7;stop-opacity:1"
         id="stop4075" />
      <stop
         offset="0.69348532"
         style="stop-color:#8c8c8c;stop-opacity:1"
         id="stop4077" />
      <stop
         offset="0.83542866"
         style="stop-color:#ddd;stop-opacity:1"
         id="stop4079" />
      <stop
         offset="1"
         style="stop-color:#a8a8a8;stop-opacity:1"
         id="stop4081" />
    </linearGradient>
    <linearGradient
       gradientTransform="matrix(0,0.3704967,-0.3617496,0,21.508315,-2.3320537)"
       gradientUnits="userSpaceOnUse"
       xlink:href="#linearGradient4222"
       id="linearGradient3370"
       y2="25.410501"
       x2="57.726395"
       y1="25.410501"
       x1="13.471772" />
    <linearGradient
       gradientTransform="matrix(0,-0.319447,-0.313352,0,19.486281,14.08587)"
       gradientUnits="userSpaceOnUse"
       xlink:href="#linearGradient4168"
       id="linearGradient3374"
       y2="20.709501"
       x2="0.81572169"
       y1="20.709501"
       x1="28.314739" />
    <radialGradient
       gradientTransform="matrix(0.9922481,0,0,0.27286877,0.8372089,7.6069702)"
       gradientUnits="userSpaceOnUse"
       xlink:href="#linearGradient5105-262-943-861"
       id="radialGradient3377"
       fy="19.03125"
       fx="11.25"
       r="8.0625"
       cy="19.03125"
       cx="11.25" />
    <radialGradient
       gradientTransform="matrix(0.08223951,-0.01555006,0.00675353,0.03972424,-2.4132726,2.930971)"
       gradientUnits="userSpaceOnUse"
       xlink:href="#linearGradient4071"
       id="radialGradient3386"
       fy="143.82751"
       fx="127.31733"
       r="78.728165"
       cy="143.82751"
       cx="127.31733" />
    <radialGradient
       gradientTransform="matrix(0.09247617,0,0,-0.08716212,-1.5554657,25.365575)"
       gradientUnits="userSpaceOnUse"
       xlink:href="#linearGradient7609-6"
       id="radialGradient3389"
       fy="191.85428"
       fx="142.62215"
       r="78.728165"
       cy="191.85428"
       cx="142.62215" />
    <radialGradient
       gradientTransform="matrix(0.1619016,-0.00251223,0.00119824,0.1445464,-11.489828,-13.258772)"
       gradientUnits="userSpaceOnUse"
       xlink:href="#linearGradient4035"
       id="radialGradient3392"
       fy="206.42612"
       fx="141.74666"
       r="78.728165"
       cy="206.42612"
       cx="141.74666" />
    <radialGradient
       gradientTransform="matrix(0.47619045,0,1.3244105e-8,0.21428567,0.57154735,11.500001)"
       gradientUnits="userSpaceOnUse"
       xlink:href="#linearGradient6310-8"
       id="radialGradient3401"
       fy="42"
       fx="24"
       r="21"
       cy="42"
       cx="24" />
    <radialGradient
       gradientTransform="matrix(1.4589405,0.00462848,-0.00359552,0.88234981,-1.9487434,4.0094007)"
       gradientUnits="userSpaceOnUse"
       xlink:href="#linearGradient7056-0"
       id="radialGradient3405"
       fy="2.8888872"
       fx="6.4480009"
       r="11"
       cy="2.8888872"
       cx="6.4480009" />
    <linearGradient
       gradientTransform="matrix(0.9032258,0,0,1.224695,1.1614081,-5.5320961)"
       gradientUnits="userSpaceOnUse"
       xlink:href="#linearGradient3484-2"
       id="linearGradient3407"
       y2="7.0147676"
       x2="10.477679"
       y1="13.49895"
       x1="12.000001" />
    <linearGradient
       gradientTransform="matrix(0.73758861,0,0,0.53932582,-1.795849,2.1869584)"
       gradientUnits="userSpaceOnUse"
       xlink:href="#linearGradient4236-0"
       id="linearGradient3410"
       y2="33.758667"
       x2="12.221823"
       y1="37.205811"
       x1="12.277412" />
    <linearGradient
       gradientTransform="matrix(0.73758861,0,0,0.53932582,-1.209103,1.4719089)"
       gradientUnits="userSpaceOnUse"
       xlink:href="#linearGradient6309"
       id="linearGradient3413"
       y2="35.28125"
       x2="24.6875"
       y1="35.28125"
       x1="7.0625" />
    <linearGradient
       gradientTransform="matrix(0.173898,0,0,0.2485308,1.1264997,-3.4876639)"
       gradientUnits="userSpaceOnUse"
       xlink:href="#linearGradient2215-9"
       id="linearGradient3416"
       y2="104.28131"
       x2="53.99139"
       y1="87.89592"
       x1="53.99139" />
  </defs>
  <rect
     style="opacity:0.40206185;fill:url(#linearGradient2934);fill-opacity:1;fill-rule:nonzero;stroke:none;stroke-width:1;marker:none;visibility:visible;display:inline;overflow:visible"
     id="rect2723"
     y="21.362579"
     x="2.8817775"
     height="2.6374204"
     width="18.236429" />
  <path
     style="opacity:0.40206185;fill:url(#radialGradient2931);fill-opacity:1;fill-rule:nonzero;stroke:none;stroke-width:1;marker:none;visibility:visible;display:inline;overflow:visible"
     id="path2725"
     d="m 21.109321,21.362672 c 0,0 0,2.637274 0,2.637274 1.142348,0.005 2.761647,-0.59088 2.761647,-1.318806 0,-0.727927 -1.274774,-1.318468 -2.761647,-1.318468 z" />
  <path
     style="opacity:0.40206185;fill:url(#radialGradient2928);fill-opacity:1;fill-rule:nonzero;stroke:none;stroke-width:1;marker:none;visibility:visible;display:inline;overflow:visible"
     id="path2727"
     d="m 2.890679,21.362672 c 0,0 0,2.637274 0,2.637274 -1.142353,0.005 -2.761647,-0.59088 -2.761647,-1.318806 0,-0.727927 1.274779,-1.318468 2.761647,-1.318468 z" />
  <path
     style="fill:url(#linearGradient3416);fill-opacity:1;fill-rule:nonzero;stroke:#353537;stroke-width:1;stroke-linecap:butt;stroke-linejoin:round;stroke-miterlimit:4;stroke-opacity:1;stroke-dasharray:none;stroke-dashoffset:0;marker:none;visibility:visible;display:inline;overflow:visible;enable-background:accumulate"
     id="rect2992"
     d="m 22.496246,18.499998 c -0.425832,3.380051 -0.316947,3.978566 -1.088034,3.978566 -0.302022,0.04823 -12.1776446,0 -18.8582323,0 -0.8373878,0 -0.6258055,0.06576 -1.0498567,-3.978566 l 20.996123,0 z" />
  <path
     style="fill:url(#linearGradient3413);fill-opacity:1;fill-rule:evenodd;stroke:none;stroke-width:2.40899992;marker:none;visibility:visible;display:inline;overflow:visible"
     id="rect9146"
     d="m 3.700118,19 13.3,0 0,3 -12.999999,0 -0.300001,-3 z" />
  <path
     style="opacity:0.81142853;fill:url(#linearGradient3410);fill-opacity:1;fill-rule:evenodd;stroke:none"
     id="path9148"
     d="m 4.000118,21.999998 c 0,0 -0.2,-2.163497 -0.2,-2.163497 1.353864,1.714639 6.319397,2.163497 9.742551,2.163497 0,0 -9.542551,0 -9.542551,0 z" />
  <path
     style="fill:url(#radialGradient3405);fill-opacity:1;fill-rule:nonzero;stroke:url(#linearGradient3407);stroke-width:0.99999982;stroke-linecap:round;stroke-linejoin:round;stroke-miterlimit:4;stroke-opacity:1;stroke-dasharray:none;stroke-dashoffset:0;marker:none;visibility:visible;display:inline;overflow:visible;enable-background:accumulate"
     id="rect2990"
     d="M 3.500118,4.8235546 1.5207674,18.486087 c -0.013649,0 -0.020649,0.0041 -0.020649,0.01394 l 21.0000006,0 c 0,-0.01023 -0.007,-0.01394 -0.02065,-0.01394 L 20.500118,4.8235546 c -0.08966,-0.6188796 -0.792893,-1.3235248 -1.5,-1.3235248 l -14,0 c -0.7071068,0 -1.4103402,0.7046452 -1.5,1.3235248 z" />
  <path
     style="opacity:0.6;fill:none;stroke:white;stroke-width:0.99999994;stroke-linecap:round;stroke-linejoin:round;stroke-miterlimit:4;stroke-opacity:1;stroke-dasharray:none;display:inline"
     id="path2215"
     d="m 2.4122969,18.499997 19.1756441,0" />
  <rect
     style="opacity:0.2;fill:url(#radialGradient3401);fill-opacity:1;stroke:none"
     id="rect6300-3"
     y="18.999998"
     x="2.000118"
     height="3"
     width="20" />
  <g
     id="g9164"
     transform="matrix(0.06610079,-0.01141585,0.00791914,0.04585394,-0.3920243,-3.4254018)">
    <path
       style="fill:#e6e6e6;fill-opacity:1"
       id="path9166"
       d="m 48.2999,190.27968 c 0.31446,4.2476 5.02375,7.71156 10.51419,7.71156 5.48794,0 9.6432,-3.46396 9.27634,-7.71156 -0.36437,-4.22514 -5.07117,-7.6367 -10.5067,-7.6367 -5.43803,0.002 -9.59329,3.41156 -9.28383,7.6367 z" />
    <path
       style="fill:url(#radialGradient3265);fill-opacity:1"
       id="path9168"
       d="m 51.85122,187.29238 c -0.50163,0.53906 -1.07563,1.40256 -1.07563,2.55056 0,0.0824 0.005,0.16471 0.01,0.25206 0.21713,2.9274 3.89322,5.40059 8.02602,5.40059 2.3534,0 4.50465,-0.81109 5.75248,-2.17371 0.53656,-0.58149 1.148,-1.54481 1.03819,-2.82758 -0.25206,-2.90244 -3.92316,-5.35567 -8.02103,-5.35567 -2.33593,0.002 -4.47969,0.8061 -5.73001,2.15375 l -2e-5,0 z" />
  </g>
  <g
     id="g9170"
     transform="matrix(0.06707933,0,0,0.04653275,15.061281,-4.2130769)">
    <path
       style="fill:#e6e6e6;fill-opacity:1"
       id="path9172"
       d="m 48.2999,190.27968 c 0.31446,4.2476 5.02375,7.71156 10.51419,7.71156 5.48794,0 9.6432,-3.46396 9.27634,-7.71156 -0.36437,-4.22514 -5.07117,-7.6367 -10.5067,-7.6367 -5.43803,0.002 -9.59329,3.41156 -9.28383,7.6367 z" />
    <path
       style="fill:url(#radialGradient3263);fill-opacity:1"
       id="path9174"
       d="m 51.85122,187.29238 c -0.50163,0.53906 -1.07563,1.40256 -1.07563,2.55056 0,0.0824 0.005,0.16471 0.01,0.25206 0.21713,2.9274 3.89322,5.40059 8.02602,5.40059 2.3534,0 4.50465,-0.81109 5.75248,-2.17371 0.53656,-0.58149 1.148,-1.54481 1.03819,-2.82758 -0.25206,-2.90244 -3.92316,-5.35567 -8.02103,-5.35567 -2.33593,0.002 -4.47969,0.8061 -5.73001,2.15375 l -2e-5,0 z" />
  </g>
  <path
     style="fill:url(#radialGradient3392);fill-opacity:1"
     id="path8469"
     d="m 14.206391,4.699998 c -0.241346,0 -0.456343,0.064534 -0.625137,0.1749998 -0.168795,0.1104646 -0.291755,0.2801308 -0.29898,0.4749997 -0.0223,0.5997567 -0.354998,1.0314249 -0.978477,1.4250007 -0.618415,0.3903794 -1.526147,0.7198861 -2.6092714,1.0249997 -0.00887,0.0025 -0.018282,-0.0025 -0.02718,0 C 9.2576935,7.8791211 8.5845404,8.1008639 7.9278311,8.3249988 7.2618448,8.5522991 6.6538409,8.7714794 6.3785758,8.9499987 4.9888193,9.7543223 4.1320196,10.823338 4.0139232,11.999995 c -0.1075343,1.071307 0.416952,2.143559 1.4405354,3.000001 1.4974239,1.252958 3.9446243,2.000002 6.5503594,2.000002 2.605743,0 5.052763,-0.74706 6.55036,-2.000002 0.934954,-0.782128 1.440535,-1.72404 1.440535,-2.7 0,-0.07957 0.0099,-0.19382 0,-0.300001 C 19.892073,10.967079 19.199125,10.013311 18.093119,9.2499981 18.062147,8.8465041 17.79414,5.3499975 17.79414,5.3499975 17.779111,5.1550519 17.641034,4.9842397 17.467981,4.8749978 17.294929,4.7657566 17.083442,4.699998 16.842843,4.699998 l -2.636452,0 z m 0,0.4249997 2.636452,0 c 0.05848,0 0.109564,0.014727 0.1359,0.025 l 0.326159,4.0999998 a 0.1630958,0.15001504 0 0 0 0,0.05 0.1630958,0.15001504 0 0 0 0.02718,0.025002 0.1630958,0.15001504 0 0 0 0.05437,0.049998 c 1.071545,0.6742635 1.703857,1.7017975 1.793874,2.6000005 0.112088,1.116095 -0.608183,2.038869 -1.902594,2.725001 -1.294421,0.686129 -3.153525,1.099996 -5.272914,1.099996 C 9.8854338,15.799996 8.0263049,15.386129 6.7319147,14.7 5.4375245,14.013865 4.7173168,13.091102 4.8293206,11.975 4.9257476,11.014549 5.6604816,9.9458391 6.8678143,9.2499975 a 0.1630958,0.15001504 0 0 0 0.02718,-0.025 c 0.004,-0.00324 0.059735,-0.038095 0.1358995,-0.074998 C 7.1070498,9.1130931 7.2119373,9.0739371 7.3298729,9.0249981 7.565745,8.9271201 7.852577,8.8134933 8.1724503,8.6999981 8.8121977,8.4730077 9.5365568,8.2601188 9.884785,8.1999979 a 0.1630958,0.15001504 0 0 0 0.02718,0 c 1.051811,-0.2945647 2.050948,-0.6452781 2.826711,-1.1249996 0.760038,-0.4699977 1.30753,-1.095183 1.358995,-1.9250001 0.01764,-0.00783 0.05313,-0.025 0.10872,-0.025 z" />
  <path
     style="fill:url(#radialGradient3389);fill-opacity:1;fill-rule:nonzero;stroke-width:1;stroke-linecap:butt;stroke-linejoin:miter;stroke-miterlimit:4;stroke-opacity:1;stroke-dasharray:none;stroke-dashoffset:0;marker:none;visibility:visible;display:inline;overflow:visible;enable-background:accumulate"
     id="path9156"
     d="m 12,13.999939 c -1.682479,0 -2.972269,-0.844744 -2.999461,-1.965214 -2.111e-4,-0.01254 -4.21e-4,-0.02407 -4.21e-4,-0.03587 0,-0.405454 0.169052,-0.791054 0.490285,-1.117547 0.543397,-0.551891 1.481606,-0.881307 2.509808,-0.881307 1.028,0 1.9662,0.329416 2.509596,0.881305 0.330722,0.335673 0.500195,0.734655 0.489866,1.153266 C 14.972044,13.155054 13.68227,14 12,14 l 0,-6.3e-5 z m 0.05027,-2.746047 c -1.580886,0 -2.4365102,0.210145 -2.4175352,0.974474 0.018329,0.752415 1.0781582,1.353591 2.3673162,1.353591 1.289158,0 2.348981,-0.60139 2.367314,-1.353591 0.01876,-0.76453 -0.736211,-0.974474 -2.317096,-0.974474 l 0,0 z" />
  <path
     style="fill:url(#radialGradient3386);fill-opacity:1;fill-rule:nonzero;stroke:none;stroke-width:1;marker:none;visibility:visible;display:inline;overflow:visible;enable-background:accumulate"
     id="path8473"
     d="m 6.0054685,4.7013088 a 0.20549881,0.16631758 0 0 0 -0.128424,0.083149 0.20549881,0.16631758 0 0 0 -0.025685,0.041574 L 5.7999901,4.9715479 5.1065009,7.1334603 5.0037619,7.4868498 a 0.20549881,0.16631758 0 0 0 0,0.062361 0.20549881,0.16631758 0 0 0 0.025685,0.062361 0.20549881,0.16631758 0 0 0 0.1284239,0.083148 0.20549881,0.16631758 0 0 0 0.1027391,0 l 0.3339022,-0.083149 5.6506519,-1.351195 0.02568,0 a 0.20549881,0.16631758 0 0 0 0.02568,0 0.20549881,0.16631758 0 0 0 0.02569,0 0.20549881,0.16631758 0 0 0 0.05137,-0.020787 c 0.378115,-0.168805 0.571405,-0.4939812 0.616435,-0.7899299 0.02306,-0.1518255 0.0069,-0.303666 -0.05137,-0.4365399 -0.03308,-0.0755 -0.103716,-0.147175 -0.17979,-0.2078762 -0.07608,-0.060704 -0.173686,-0.1071459 -0.308218,-0.1039381 l -0.02568,0 -5.2396955,0 -0.128424,0 a 0.20549881,0.16631758 0 0 0 -0.05137,0 z m 0.4109565,0.4573276 4.854422,0 c -0.01258,0.051738 -0.02898,0.086845 -0.05136,0.1455132 -0.04109,0.1076581 -0.119713,0.1951472 -0.102744,0.1870889 L 5.9797837,6.6969203 6.416425,5.1586364 z" />
  <g
     id="g9158"
     transform="matrix(-0.09781119,0,0,0.1076727,9.2623285,-3.818253)">
    <path
       style="fill:#e6e6e6;fill-opacity:1"
       id="path9160"
       d="m 48.2999,190.27968 c 0.31446,4.2476 5.02375,7.71156 10.51419,7.71156 5.48794,0 9.6432,-3.46396 9.27634,-7.71156 -0.36437,-4.22514 -5.07117,-7.6367 -10.5067,-7.6367 -5.43803,0.002 -9.59329,3.41156 -9.28383,7.6367 z" />
    <path
       style="fill:url(#radialGradient3269);fill-opacity:1"
       id="path9162"
       d="m 51.85122,187.29238 c -0.50163,0.53906 -1.07563,1.40256 -1.07563,2.55056 0,0.0824 0.005,0.16471 0.01,0.25206 0.21713,2.9274 3.89322,5.40059 8.02602,5.40059 2.3534,0 4.50465,-0.81109 5.75248,-2.17371 0.53656,-0.58149 1.148,-1.54481 1.03819,-2.82758 -0.25206,-2.90244 -3.92316,-5.35567 -8.02103,-5.35567 -2.33593,0.002 -4.47969,0.8061 -5.73001,2.15375 l -2e-5,0 z" />
  </g>
  <g
     id="g9190"
     transform="matrix(0.09781119,0,0,0.1076727,14.777434,-3.818253)">
    <path
       style="fill:#e6e6e6;fill-opacity:1"
       id="path9192"
       d="m 48.2999,190.27968 c 0.31446,4.2476 5.02375,7.71156 10.51419,7.71156 5.48794,0 9.6432,-3.46396 9.27634,-7.71156 -0.36437,-4.22514 -5.07117,-7.6367 -10.5067,-7.6367 -5.43803,0.002 -9.59329,3.41156 -9.28383,7.6367 z" />
    <path
       style="fill:url(#radialGradient3267);fill-opacity:1"
       id="path9194"
       d="m 51.85122,187.29238 c -0.50163,0.53906 -1.07563,1.40256 -1.07563,2.55056 0,0.0824 0.005,0.16471 0.01,0.25206 0.21713,2.9274 3.89322,5.40059 8.02602,5.40059 2.3534,0 4.50465,-0.81109 5.75248,-2.17371 0.53656,-0.58149 1.148,-1.54481 1.03819,-2.82758 -0.25206,-2.90244 -3.92316,-5.35567 -8.02103,-5.35567 -2.33593,0.002 -4.47969,0.8061 -5.73001,2.15375 l -2e-5,0 z" />
  </g>
  <path
     style="opacity:0.16292138;fill:url(#radialGradient3377);fill-opacity:1;fill-rule:nonzero;stroke:none;stroke-width:1;marker:none;visibility:visible;display:inline;overflow:visible"
     id="path4346"
     d="M 20,12.799998 C 20,14.015026 16.418278,15 12,15 7.5817218,15 3.9999996,14.015026 3.9999997,12.799998 3.9999996,11.58497 7.5817218,10.599996 12,10.599996 c 4.418278,0 8,0.984974 8,2.200002 l 0,0 z" />
  <path
     style="fill:url(#linearGradient3374);fill-opacity:1;fill-rule:nonzero;stroke:#bf8407;stroke-width:0.99829447;stroke-linecap:round;stroke-linejoin:round;stroke-miterlimit:4;stroke-opacity:1;stroke-dasharray:none;stroke-dashoffset:0;marker:none;visibility:visible;display:inline;overflow:visible"
     id="path3288"
     d="m 18.176046,6.5000002 -6.191561,7.0008528 -6.160531,-7.0008528 2.6760464,0 0,-6.000853 6.9999996,0 0,6.000853 2.676046,0 z" />
  <path
     style="opacity:0.35400008;fill:none;stroke:url(#linearGradient3370);stroke-width:0.99829447;stroke-linecap:butt;stroke-linejoin:miter;stroke-miterlimit:4;stroke-opacity:1;stroke-dasharray:none;stroke-dashoffset:0;marker:none;visibility:visible;display:inline;overflow:visible"
     id="path3290"
     d="M 15.926403,7.5000002 12,12.045115 7.9630622,7.5000002 l 1.5369382,0 0,-6 4.9999996,0 0,6 1.426403,0 z" />
</svg>
